<svg width="70" height="97" viewBox="0 0 70 97" fill="none" xmlns="http://www.w3.org/2000/svg">
<path d="M69.972 36.1643C69.9878 55.9179 54.3432 71.944 35.0289 71.9596C15.7145 71.9751 0.044349 55.9743 0.0285701 36.2207C0.0127913 16.4671 15.6574 0.441002 34.9717 0.425446C54.2861 0.409889 69.9562 16.4107 69.972 36.1643ZM15.4872 36.2082C15.496 47.2301 24.2395 56.1581 35.0162 56.1494C45.793 56.1407 54.5222 47.1987 54.5134 36.1768C54.5046 25.1549 45.7611 16.227 34.9844 16.2356C24.2076 16.2443 15.4784 25.1864 15.4872 36.2082Z" fill="#5452F6"/>
<path d="M39.4597 86.2795C37.7111 90.181 32.1907 90.2322 30.3721 86.3637L21.2879 67.0398C19.7375 63.7418 22.1235 59.9456 25.7679 59.9118L43.5868 59.7466C47.2313 59.7129 49.6852 63.4642 48.1945 66.7904L39.4597 86.2795Z" fill="#5452F6"/>
</svg>
