<svg width="30" height="41" viewBox="0 0 30 41" fill="none" xmlns="http://www.w3.org/2000/svg">
<path d="M29.9869 15.901C29.9932 24.1313 23.2881 30.8089 15.0106 30.8158C6.7331 30.8228 0.0177394 24.1564 0.011428 15.9262C0.00511647 7.69588 6.71025 1.0183 14.9878 1.01135C23.2653 1.00441 29.9806 7.67073 29.9869 15.901ZM6.6365 15.9206C6.64002 20.5128 10.387 24.2324 15.0056 24.2285C19.6241 24.2247 23.3654 20.4988 23.3619 15.9066C23.3583 11.3143 19.6114 7.59474 14.9928 7.59862C10.3742 7.60249 6.63298 11.3284 6.6365 15.9206Z" fill="#5452F6"/>
<path d="M17.2277 37.0783C16.5203 38.6127 14.3465 38.6323 13.6108 37.1109L9.52863 28.6688C8.88985 27.3478 9.84348 25.8118 11.3106 25.7986L19.318 25.7264C20.7851 25.7132 21.767 27.2317 21.1528 28.564L17.2277 37.0783Z" fill="#5452F6"/>
</svg>
